<?xml version="1.0" encoding="UTF-8"?>
<svg xmlns="http://www.w3.org/2000/svg" xmlns:xlink="http://www.w3.org/1999/xlink" viewBox="0 0 64 64" width="64px" height="64px">
<g id="surface78993361">
<path style=" stroke:none;fill-rule:nonzero;fill:rgb(99.607843%,85.882354%,34.901962%);fill-opacity:1;" d="M 1 29.878906 C 1 43.539062 14.910156 54.660156 32 54.660156 C 34.148438 54.65625 36.292969 54.476562 38.410156 54.121094 C 39.648438 56.121094 43.089844 60.25 50.410156 61.878906 L 50.621094 61.878906 C 50.960938 61.863281 51.269531 61.671875 51.4375 61.371094 C 51.605469 61.074219 51.609375 60.710938 51.449219 60.410156 C 49.757812 57.472656 48.761719 54.183594 48.539062 50.800781 C 57.621094 46.269531 63 38.46875 63 29.878906 C 63 16.210938 49.089844 5.089844 32 5.089844 C 14.910156 5.089844 1 16.210938 1 29.878906 Z M 1 29.878906 "/>
<path style=" stroke:none;fill-rule:nonzero;fill:rgb(98.823529%,72.549021%,27.450982%);fill-opacity:1;" d="M 62.359375 34.949219 C 60.691406 41.480469 55.800781 47.191406 48.558594 50.839844 C 48.785156 54.222656 49.777344 57.511719 51.46875 60.449219 C 51.632812 60.75 51.628906 61.113281 51.457031 61.414062 C 51.289062 61.710938 50.980469 61.902344 50.640625 61.921875 L 50.429688 61.921875 C 43.101562 60.289062 39.660156 56.109375 38.429688 54.160156 C 36.3125 54.515625 34.167969 54.699219 32.019531 54.699219 C 17.109375 54.660156 4.640625 46.21875 1.671875 35 C 1.359375 33.800781 1.625 32.527344 2.382812 31.546875 C 3.140625 30.570312 4.3125 29.996094 5.550781 30 L 58.460938 30 C 59.691406 29.996094 60.855469 30.558594 61.617188 31.523438 C 62.378906 32.492188 62.652344 33.753906 62.359375 34.949219 Z M 62.359375 34.949219 "/>
<path style=" stroke:none;fill-rule:nonzero;fill:rgb(100%,99.607843%,45.490196%);fill-opacity:1;" d="M 32 11 C 18.746094 11 8 19.507812 8 30 C 8 40.492188 18.746094 49 32 49 C 45.253906 49 56 40.492188 56 30 C 56 19.507812 45.253906 11 32 11 Z M 32 11 "/>
<path style=" stroke:none;fill-rule:nonzero;fill:rgb(55.29412%,42.352942%,62.352943%);fill-opacity:1;" d="M 64 29.761719 C 64 15.648438 49.640625 4.171875 32 4.171875 C 14.359375 4.171875 0 15.648438 0 29.761719 C 0 43.871094 14.359375 55.339844 32 55.339844 C 34.21875 55.339844 36.433594 55.15625 38.621094 54.789062 C 39.898438 56.789062 43.449219 61.121094 51.019531 62.789062 L 51.238281 62.789062 C 51.597656 62.789062 51.929688 62.597656 52.109375 62.285156 C 52.285156 61.972656 52.285156 61.589844 52.101562 61.28125 C 50.355469 58.246094 49.328125 54.851562 49.101562 51.359375 C 58.441406 46.679688 64 38.628906 64 29.761719 Z M 47.621094 49.890625 C 47.257812 50.0625 47.03125 50.4375 47.050781 50.839844 C 47.195312 54.09375 47.953125 57.289062 49.28125 60.261719 C 43.191406 58.261719 40.671875 54.429688 40 53.210938 C 39.824219 52.886719 39.488281 52.6875 39.121094 52.691406 L 38.941406 52.691406 C 36.652344 53.117188 34.328125 53.328125 32 53.328125 C 15.460938 53.328125 2 42.75 2 29.738281 C 2 16.730469 15.460938 6.171875 32 6.171875 C 48.539062 6.171875 62 16.75 62 29.761719 C 62 38 56.628906 45.558594 47.621094 49.890625 Z M 47.621094 49.890625 "/>
<path style=" stroke:none;fill-rule:nonzero;fill:rgb(92.941177%,64.705884%,21.176471%);fill-opacity:1;" d="M 20 28 C 18.894531 28 18 28.894531 18 30 C 18 31.105469 18.894531 32 20 32 C 21.105469 32 22 31.105469 22 30 C 22 28.894531 21.105469 28 20 28 Z M 32 28 C 30.894531 28 30 28.894531 30 30 C 30 31.105469 30.894531 32 32 32 C 33.105469 32 34 31.105469 34 30 C 34 28.894531 33.105469 28 32 28 Z M 44 28 C 42.894531 28 42 28.894531 42 30 C 42 31.105469 42.894531 32 44 32 C 45.105469 32 46 31.105469 46 30 C 46 28.894531 45.105469 28 44 28 Z M 44 28 "/>
<path style=" stroke:none;fill-rule:nonzero;fill:rgb(55.29412%,42.352942%,62.352943%);fill-opacity:1;" d="M 31.710938 45.691406 C 31.160156 45.738281 30.753906 46.222656 30.800781 46.769531 L 30.96875 48.769531 C 31.015625 49.285156 31.449219 49.683594 31.96875 49.679688 L 32.058594 49.679688 C 32.332031 49.664062 32.585938 49.539062 32.761719 49.335938 C 32.9375 49.128906 33.023438 48.859375 33 48.589844 L 32.828125 46.589844 C 32.804688 46.320312 32.671875 46.074219 32.460938 45.902344 C 32.25 45.734375 31.980469 45.65625 31.710938 45.691406 Z M 12.199219 37 L 10.558594 38.148438 C 10.246094 38.34375 10.066406 38.699219 10.089844 39.066406 C 10.113281 39.433594 10.339844 39.761719 10.675781 39.910156 C 11.015625 40.0625 11.40625 40.015625 11.699219 39.789062 L 13.339844 38.640625 C 13.761719 38.3125 13.851562 37.714844 13.546875 37.277344 C 13.246094 36.84375 12.652344 36.71875 12.199219 37 Z M 15.710938 41.199219 L 14.421875 42.730469 C 14.136719 43.15625 14.222656 43.726562 14.613281 44.050781 C 15.007812 44.378906 15.582031 44.355469 15.949219 44 L 17.238281 42.46875 C 17.597656 42.046875 17.542969 41.417969 17.121094 41.058594 C 16.699219 40.703125 16.066406 40.757812 15.710938 41.179688 Z M 21.519531 43.878906 C 21.019531 43.644531 20.425781 43.859375 20.191406 44.359375 L 19.339844 46.171875 C 19.117188 46.667969 19.335938 47.25 19.828125 47.484375 C 20.320312 47.714844 20.910156 47.507812 21.148438 47.019531 L 22 45.210938 C 22.234375 44.710938 22.019531 44.113281 21.519531 43.878906 Z M 26.488281 45.460938 C 26.230469 45.414062 25.960938 45.472656 25.742188 45.625 C 25.523438 45.777344 25.375 46.007812 25.328125 46.269531 L 24.980469 48.269531 C 24.933594 48.53125 24.992188 48.800781 25.144531 49.019531 C 25.296875 49.234375 25.527344 49.382812 25.789062 49.429688 L 25.96875 49.429688 C 26.460938 49.4375 26.886719 49.085938 26.96875 48.601562 L 27.320312 46.601562 C 27.402344 46.054688 27.03125 45.546875 26.488281 45.460938 Z M 9 30 C 9 20.078125 19.300781 12 32 12 C 35.980469 11.984375 39.917969 12.820312 43.550781 14.449219 C 44.050781 14.679688 44.644531 14.457031 44.875 13.953125 C 45.105469 13.453125 44.882812 12.859375 44.378906 12.628906 C 40.488281 10.878906 36.265625 9.984375 32 10 C 18.238281 10 7 19 7 30 C 7 31.347656 7.167969 32.691406 7.5 34 C 7.617188 34.453125 8.03125 34.765625 8.5 34.75 C 8.582031 34.761719 8.667969 34.761719 8.75 34.75 C 9.28125 34.613281 9.601562 34.074219 9.46875 33.539062 C 9.164062 32.382812 9.007812 31.195312 9 30 Z M 54.46875 21.289062 C 54.320312 20.929688 53.976562 20.6875 53.585938 20.671875 C 53.195312 20.65625 52.832031 20.867188 52.65625 21.214844 C 52.476562 21.5625 52.519531 21.984375 52.761719 22.289062 C 54.207031 24.601562 54.984375 27.273438 55 30 C 55 38.191406 47.941406 45.359375 37.828125 47.421875 C 37.277344 47.476562 36.875 47.96875 36.929688 48.519531 C 36.984375 49.074219 37.476562 49.476562 38.03125 49.421875 L 38.230469 49.421875 C 49.238281 47.128906 57 39.160156 57 30 C 56.976562 26.917969 56.101562 23.902344 54.46875 21.289062 Z M 50.101562 18.941406 C 50.488281 19.332031 51.121094 19.335938 51.515625 18.945312 C 51.90625 18.554688 51.910156 17.921875 51.519531 17.53125 C 50.675781 16.683594 49.765625 15.902344 48.800781 15.199219 C 48.351562 14.875 47.726562 14.972656 47.398438 15.421875 C 47.074219 15.867188 47.171875 16.496094 47.621094 16.820312 C 48.5 17.460938 49.328125 18.171875 50.101562 18.941406 Z M 50.101562 18.941406 "/>
</g>
</svg>
